<?xml version="1.0" encoding="UTF-8"?>
<!-- Generator: Adobe Illustrator 15.0.0, SVG Export Plug-In . SVG Version: 6.00 Build 0)  -->
<!DOCTYPE svg PUBLIC "-//W3C//DTD SVG 1.1//EN" "http://www.w3.org/Graphics/SVG/1.1/DTD/svg11.dtd">
<svg version="1.1" id="Calque_1" xmlns="http://www.w3.org/2000/svg" xmlns:xlink="http://www.w3.org/1999/xlink" x="0px" y="0px" width="57px" height="57px" viewBox="0 0 57 57" enable-background="new 0 0 57 57" xml:space="preserve">
<g>
	<g>
		<g>
			<path fill="#CBCBCB" d="M22.545,24.025c-2.669,0-4.762-1.314-4.762-2.992c0-1.677,2.092-2.99,4.762-2.99     c2.672,0,4.766,1.313,4.766,2.99C27.311,22.71,25.217,24.025,22.545,24.025z M22.545,19.014c-2.055,0-3.791,0.925-3.791,2.019     c0,1.095,1.736,2.021,3.791,2.021c2.058,0,3.795-0.925,3.795-2.021C26.34,19.938,24.603,19.014,22.545,19.014z"/>
		</g>
		<g>
			<path fill="#CBCBCB" d="M34.421,24.025c-2.673,0-4.769-1.314-4.769-2.992c0-1.677,2.096-2.99,4.769-2.99     c2.671,0,4.765,1.313,4.765,2.99C39.186,22.71,37.092,24.025,34.421,24.025z M34.421,19.014c-2.059,0-3.798,0.925-3.798,2.019     c0,1.095,1.739,2.021,3.798,2.021c2.056,0,3.794-0.925,3.794-2.021C38.215,19.938,36.477,19.014,34.421,19.014z"/>
		</g>
		<g>
			<path fill="#CBCBCB" d="M30.215,21.065c-0.101,0-0.202-0.031-0.287-0.095c-1.589-1.179-2.792-0.084-2.843-0.035     c-0.193,0.182-0.502,0.173-0.685-0.024c-0.184-0.195-0.172-0.503,0.022-0.686c0.633-0.591,2.299-1.358,4.082-0.036     c0.216,0.16,0.26,0.465,0.103,0.679C30.509,20.998,30.363,21.065,30.215,21.065z"/>
		</g>
	</g>
		<g>
			<rect x="12.511" y="38.433" transform="matrix(0.1945 0.9809 -0.9809 0.1945 53.293 22.1253)" fill="#575756" width="1.328" height="10.156"/>
		</g>
		<g>
			<rect x="39.27" y="42.95" transform="matrix(0.9811 0.1936 -0.1936 0.9811 9.2849 -7.7621)" fill="#575756" width="10.157" height="1.329"/>
		</g>
		<g>
			<path fill="#CBCBCB" d="M28.5,57C12.786,57,0,44.216,0,28.5C0,12.786,12.786,0,28.5,0C44.215,0,57,12.786,57,28.5    C57,44.216,44.215,57,28.5,57z M28.5,2.424C14.122,2.424,2.424,14.122,2.424,28.5c0,14.378,11.698,26.078,26.076,26.078    S54.574,42.879,54.574,28.5C54.574,14.122,42.878,2.424,28.5,2.424z"/>
		</g>
		<g>
			<path fill="#575756" d="M13.947,24.349c0,0-1.025,18.763,14.581,18.763c15.601,0,14.487-18.763,14.487-18.763l-1.909,0.309    c0,0-2.499,13.702-9.104,13.702c-1.805,0-2.344-2.098-2.344-2.098h-2.591c0,0-0.25,2.098-1.547,2.098    c-1.292,0-9.23-3.763-9.23-14.01H13.947z"/>
		</g>
		<g>
			<path fill="#CBCBCB" d="M21.955,33.598c0,0,2.72-3.37,6.659-3.37c3.937,0,6.701,3.37,6.701,3.37s-1.815-0.589-4.658-0.364    c-0.592,0.047-2.126-0.604-2.126-0.604s-1.668,0.661-2.296,0.605C23.529,32.998,21.955,33.598,21.955,33.598z"/>
		</g>
		<g>
			<polygon fill="#CBCBCB" points="17.542,40.656 28.401,50.879 18.353,44.489 16.313,47.27   "/>
		</g>
		<g>
			<polygon fill="#CBCBCB" points="39.861,40.656 29.009,50.879 38.764,45.068 41.094,47.27   "/>
		</g>
	</g>
</svg>